<svg width="24" height="24" viewBox="0 0 24 24" fill="none" xmlns="http://www.w3.org/2000/svg">
<path d="M19.05 21.6L16.125 18.7L14.625 20.2C14.4417 20.3833 14.2083 20.475 13.925 20.475C13.6417 20.475 13.4083 20.3833 13.225 20.2C12.8417 19.8167 12.65 19.3417 12.65 18.775C12.65 18.2083 12.8417 17.7333 13.225 17.35L17.45 13.125C17.8333 12.7417 18.3083 12.55 18.875 12.55C19.4417 12.55 19.9167 12.7417 20.3 13.125C20.4833 13.3083 20.575 13.5417 20.575 13.825C20.575 14.1083 20.4833 14.3417 20.3 14.525L18.8 16.025L21.7 18.95C21.9 19.15 22 19.3833 22 19.65C22 19.9167 21.9 20.15 21.7 20.35L20.45 21.6C20.25 21.8 20.0167 21.9 19.75 21.9C19.4833 21.9 19.25 21.8 19.05 21.6ZM21.7 6.19999L10.65 17.25L10.775 17.35C11.1583 17.7333 11.35 18.2083 11.35 18.775C11.35 19.3417 11.1583 19.8167 10.775 20.2C10.5917 20.3833 10.3583 20.475 10.075 20.475C9.79167 20.475 9.55833 20.3833 9.375 20.2L7.875 18.7L4.95 21.6C4.75 21.8 4.51667 21.9 4.25 21.9C3.98333 21.9 3.75 21.8 3.55 21.6L2.3 20.35C2.1 20.15 2 19.9167 2 19.65C2 19.3833 2.1 19.15 2.3 18.95L5.2 16.025L3.7 14.525C3.51667 14.3417 3.425 14.1083 3.425 13.825C3.425 13.5417 3.51667 13.3083 3.7 13.125C4.08333 12.7417 4.55833 12.55 5.125 12.55C5.69167 12.55 6.16667 12.7417 6.55 13.125L6.65 13.25L17.425 2.47499C17.6083 2.29166 17.8208 2.14999 18.0625 2.04999C18.3042 1.94999 18.5583 1.89999 18.825 1.89999H21C21.2833 1.89999 21.5208 1.99583 21.7125 2.18749C21.9042 2.37916 22 2.61666 22 2.89999V5.47499C22 5.60833 21.975 5.73749 21.925 5.86249C21.875 5.98749 21.8 6.09999 21.7 6.19999ZM6.225 10.125L2.575 6.47499C2.39167 6.29166 2.25 6.07916 2.15 5.83749C2.05 5.59583 2 5.34166 2 5.07499V2.89999C2 2.61666 2.09583 2.37916 2.2875 2.18749C2.47917 1.99583 2.71667 1.89999 3 1.89999H5.175C5.44167 1.89999 5.69583 1.94999 5.9375 2.04999C6.17917 2.14999 6.39167 2.29166 6.575 2.47499L10.225 6.12499C10.425 6.32499 10.525 6.56249 10.525 6.83749C10.525 7.11249 10.425 7.34999 10.225 7.54999L7.65 10.125C7.45 10.325 7.2125 10.425 6.9375 10.425C6.6625 10.425 6.425 10.325 6.225 10.125Z" fill="white"/>
</svg>
