<svg width="32" height="32" viewBox="0 0 32 32" fill="none" xmlns="http://www.w3.org/2000/svg">
<path d="M6.66669 14.3L3.33335 12.4C3.13335 12.2889 2.97224 12.1278 2.85002 11.9167C2.7278 11.7056 2.66669 11.4778 2.66669 11.2333V7.43333C2.66669 7.18889 2.7278 6.96111 2.85002 6.75C2.97224 6.53889 3.13335 6.37777 3.33335 6.26666L6.66669 4.36666C6.86669 4.25555 7.08891 4.2 7.33335 4.2C7.5778 4.2 7.80002 4.25555 8.00002 4.36666L11.3334 6.26666C11.5334 6.37777 11.6945 6.53889 11.8167 6.75C11.9389 6.96111 12 7.18889 12 7.43333V11.2333C12 11.4778 11.9389 11.7056 11.8167 11.9167C11.6945 12.1278 11.5334 12.2889 11.3334 12.4L8.00002 14.3C7.80002 14.4111 7.5778 14.4667 7.33335 14.4667C7.08891 14.4667 6.86669 14.4111 6.66669 14.3ZM22 17.3333V12.6L25.3334 14.5667C25.7556 14.8111 26.0834 15.1333 26.3167 15.5333C26.55 15.9333 26.6667 16.3778 26.6667 16.8667V23.1333C26.6667 23.6222 26.55 24.0667 26.3167 24.4667C26.0834 24.8667 25.7556 25.1889 25.3334 25.4333L20 28.5333C19.5778 28.7778 19.1334 28.9 18.6667 28.9C18.2 28.9 17.7556 28.7778 17.3334 28.5333L12 25.4333C11.5778 25.1889 11.25 24.8667 11.0167 24.4667C10.7834 24.0667 10.6667 23.6222 10.6667 23.1333V16.8667C10.6667 16.3778 10.7834 15.9333 11.0167 15.5333C11.25 15.1333 11.5778 14.8111 12 14.5667L15.3334 12.6V17.3333C15.3334 18.2667 15.6556 19.0556 16.3 19.7C16.9445 20.3444 17.7334 20.6667 18.6667 20.6667C19.6 20.6667 20.3889 20.3444 21.0334 19.7C21.6778 19.0556 22 18.2667 22 17.3333ZM20 10.6667V17.3333C20 17.7111 19.8722 18.0278 19.6167 18.2833C19.3611 18.5389 19.0445 18.6667 18.6667 18.6667C18.2889 18.6667 17.9722 18.5389 17.7167 18.2833C17.4611 18.0278 17.3334 17.7111 17.3334 17.3333V4C17.3334 3.62222 17.4611 3.30555 17.7167 3.05C17.9722 2.79444 18.2889 2.66666 18.6667 2.66666H26.8334C27.3667 2.66666 27.7667 2.9 28.0334 3.36666C28.3 3.83333 28.2778 4.28889 27.9667 4.73333L27.1667 5.93333C27.0111 6.15555 26.9334 6.4 26.9334 6.66666C26.9334 6.93333 27.0111 7.17777 27.1667 7.4L27.9667 8.6C28.2778 9.04444 28.3 9.5 28.0334 9.96666C27.7667 10.4333 27.3667 10.6667 26.8334 10.6667H20Z" fill="white"/>
</svg>
